<mxfile host="Electron" modified="2023-11-22T19:03:06.351Z" agent="Mozilla/5.0 (Windows NT 10.0; Win64; x64) AppleWebKit/537.36 (KHTML, like Gecko) draw.io/22.1.2 Chrome/114.0.5735.289 Electron/25.9.4 Safari/537.36" etag="11GZsu9W79vorGlcakH4" version="22.1.2" type="device">
  <diagram name="第 1 页" id="aGSuavtvCbklwBOCWPDv">
    <mxGraphModel dx="1418" dy="820" grid="1" gridSize="10" guides="1" tooltips="1" connect="1" arrows="1" fold="1" page="1" pageScale="1" pageWidth="827" pageHeight="1169" math="0" shadow="0">
      <root>
        <mxCell id="0" />
        <mxCell id="1" parent="0" />
        <mxCell id="WCTqXBMBPDvPKNIocuM3-1" value="Standing table" style="rounded=1;whiteSpace=wrap;html=1;" vertex="1" parent="1">
          <mxGeometry x="354" y="40" width="120" height="60" as="geometry" />
        </mxCell>
        <mxCell id="WCTqXBMBPDvPKNIocuM3-2" value="Add scores" style="rounded=0;whiteSpace=wrap;html=1;" vertex="1" parent="1">
          <mxGeometry x="60" y="120" width="120" height="60" as="geometry" />
        </mxCell>
        <mxCell id="WCTqXBMBPDvPKNIocuM3-3" value="Print standings" style="rounded=0;whiteSpace=wrap;html=1;" vertex="1" parent="1">
          <mxGeometry x="210" y="120" width="120" height="60" as="geometry" />
        </mxCell>
        <mxCell id="WCTqXBMBPDvPKNIocuM3-4" value="Quit" style="rounded=0;whiteSpace=wrap;html=1;" vertex="1" parent="1">
          <mxGeometry x="680" y="120" width="120" height="60" as="geometry" />
        </mxCell>
        <mxCell id="WCTqXBMBPDvPKNIocuM3-5" value="Player standings" style="rounded=0;whiteSpace=wrap;html=1;" vertex="1" parent="1">
          <mxGeometry x="370" y="120" width="120" height="60" as="geometry" />
        </mxCell>
        <mxCell id="WCTqXBMBPDvPKNIocuM3-6" value="Game" style="swimlane;fontStyle=0;childLayout=stackLayout;horizontal=1;startSize=30;horizontalStack=0;resizeParent=1;resizeParentMax=0;resizeLast=0;collapsible=1;marginBottom=0;whiteSpace=wrap;html=1;" vertex="1" parent="1">
          <mxGeometry x="10" y="220" width="140" height="210" as="geometry" />
        </mxCell>
        <mxCell id="WCTqXBMBPDvPKNIocuM3-7" value="Home team" style="text;strokeColor=none;fillColor=none;align=left;verticalAlign=middle;spacingLeft=4;spacingRight=4;overflow=hidden;points=[[0,0.5],[1,0.5]];portConstraint=eastwest;rotatable=0;whiteSpace=wrap;html=1;" vertex="1" parent="WCTqXBMBPDvPKNIocuM3-6">
          <mxGeometry y="30" width="140" height="30" as="geometry" />
        </mxCell>
        <mxCell id="WCTqXBMBPDvPKNIocuM3-8" value="Visiting team" style="text;strokeColor=none;fillColor=none;align=left;verticalAlign=middle;spacingLeft=4;spacingRight=4;overflow=hidden;points=[[0,0.5],[1,0.5]];portConstraint=eastwest;rotatable=0;whiteSpace=wrap;html=1;" vertex="1" parent="WCTqXBMBPDvPKNIocuM3-6">
          <mxGeometry y="60" width="140" height="30" as="geometry" />
        </mxCell>
        <mxCell id="WCTqXBMBPDvPKNIocuM3-10" value="Goals for home team" style="text;strokeColor=none;fillColor=none;align=left;verticalAlign=middle;spacingLeft=4;spacingRight=4;overflow=hidden;points=[[0,0.5],[1,0.5]];portConstraint=eastwest;rotatable=0;whiteSpace=wrap;html=1;" vertex="1" parent="WCTqXBMBPDvPKNIocuM3-6">
          <mxGeometry y="90" width="140" height="30" as="geometry" />
        </mxCell>
        <mxCell id="WCTqXBMBPDvPKNIocuM3-9" value="Goals for visiting team" style="text;strokeColor=none;fillColor=none;align=left;verticalAlign=middle;spacingLeft=4;spacingRight=4;overflow=hidden;points=[[0,0.5],[1,0.5]];portConstraint=eastwest;rotatable=0;whiteSpace=wrap;html=1;" vertex="1" parent="WCTqXBMBPDvPKNIocuM3-6">
          <mxGeometry y="120" width="140" height="30" as="geometry" />
        </mxCell>
        <mxCell id="WCTqXBMBPDvPKNIocuM3-12" value="Result (W/L/D) (not input)" style="text;strokeColor=none;fillColor=none;align=left;verticalAlign=middle;spacingLeft=4;spacingRight=4;overflow=hidden;points=[[0,0.5],[1,0.5]];portConstraint=eastwest;rotatable=0;whiteSpace=wrap;html=1;" vertex="1" parent="WCTqXBMBPDvPKNIocuM3-6">
          <mxGeometry y="150" width="140" height="30" as="geometry" />
        </mxCell>
        <mxCell id="WCTqXBMBPDvPKNIocuM3-11" value="HashMap Player(Home/ Visiting)" style="text;strokeColor=none;fillColor=none;align=left;verticalAlign=middle;spacingLeft=4;spacingRight=4;overflow=hidden;points=[[0,0.5],[1,0.5]];portConstraint=eastwest;rotatable=0;whiteSpace=wrap;html=1;" vertex="1" parent="WCTqXBMBPDvPKNIocuM3-6">
          <mxGeometry y="180" width="140" height="30" as="geometry" />
        </mxCell>
        <mxCell id="WCTqXBMBPDvPKNIocuM3-17" value="" style="endArrow=none;html=1;rounded=0;exitX=0.5;exitY=0;exitDx=0;exitDy=0;" edge="1" parent="1" source="WCTqXBMBPDvPKNIocuM3-3">
          <mxGeometry width="50" height="50" relative="1" as="geometry">
            <mxPoint x="300" y="120" as="sourcePoint" />
            <mxPoint x="414" y="100" as="targetPoint" />
          </mxGeometry>
        </mxCell>
        <mxCell id="WCTqXBMBPDvPKNIocuM3-19" value="" style="endArrow=none;html=1;rounded=0;entryX=0.5;entryY=1;entryDx=0;entryDy=0;" edge="1" parent="1" target="WCTqXBMBPDvPKNIocuM3-1">
          <mxGeometry width="50" height="50" relative="1" as="geometry">
            <mxPoint x="120" y="120" as="sourcePoint" />
            <mxPoint x="234" y="100" as="targetPoint" />
          </mxGeometry>
        </mxCell>
        <mxCell id="WCTqXBMBPDvPKNIocuM3-20" value="" style="endArrow=none;html=1;rounded=0;entryX=0.5;entryY=0;entryDx=0;entryDy=0;" edge="1" parent="1" target="WCTqXBMBPDvPKNIocuM3-5">
          <mxGeometry width="50" height="50" relative="1" as="geometry">
            <mxPoint x="413" y="100" as="sourcePoint" />
            <mxPoint x="530" y="120" as="targetPoint" />
          </mxGeometry>
        </mxCell>
        <mxCell id="WCTqXBMBPDvPKNIocuM3-21" value="" style="endArrow=none;html=1;rounded=0;entryX=0.5;entryY=0;entryDx=0;entryDy=0;" edge="1" parent="1" target="WCTqXBMBPDvPKNIocuM3-4">
          <mxGeometry width="50" height="50" relative="1" as="geometry">
            <mxPoint x="410" y="100" as="sourcePoint" />
            <mxPoint x="547" y="110" as="targetPoint" />
          </mxGeometry>
        </mxCell>
        <mxCell id="WCTqXBMBPDvPKNIocuM3-22" value="" style="endArrow=classic;html=1;rounded=0;" edge="1" parent="1" target="WCTqXBMBPDvPKNIocuM3-6">
          <mxGeometry width="50" height="50" relative="1" as="geometry">
            <mxPoint x="120" y="180" as="sourcePoint" />
            <mxPoint x="170" y="130" as="targetPoint" />
          </mxGeometry>
        </mxCell>
        <mxCell id="WCTqXBMBPDvPKNIocuM3-33" value="Scorer standings" style="rounded=0;whiteSpace=wrap;html=1;" vertex="1" parent="1">
          <mxGeometry x="550" y="120" width="120" height="60" as="geometry" />
        </mxCell>
        <mxCell id="WCTqXBMBPDvPKNIocuM3-34" value="" style="endArrow=none;html=1;rounded=0;entryX=0.5;entryY=0;entryDx=0;entryDy=0;" edge="1" parent="1" target="WCTqXBMBPDvPKNIocuM3-33">
          <mxGeometry width="50" height="50" relative="1" as="geometry">
            <mxPoint x="413" y="100" as="sourcePoint" />
            <mxPoint x="743" y="120" as="targetPoint" />
          </mxGeometry>
        </mxCell>
        <mxCell id="WCTqXBMBPDvPKNIocuM3-35" value="Team" style="swimlane;fontStyle=0;childLayout=stackLayout;horizontal=1;startSize=30;horizontalStack=0;resizeParent=1;resizeParentMax=0;resizeLast=0;collapsible=1;marginBottom=0;whiteSpace=wrap;html=1;" vertex="1" parent="1">
          <mxGeometry x="230" y="440" width="140" height="240" as="geometry" />
        </mxCell>
        <mxCell id="WCTqXBMBPDvPKNIocuM3-36" value="Team name" style="text;strokeColor=none;fillColor=none;align=left;verticalAlign=middle;spacingLeft=4;spacingRight=4;overflow=hidden;points=[[0,0.5],[1,0.5]];portConstraint=eastwest;rotatable=0;whiteSpace=wrap;html=1;" vertex="1" parent="WCTqXBMBPDvPKNIocuM3-35">
          <mxGeometry y="30" width="140" height="30" as="geometry" />
        </mxCell>
        <mxCell id="WCTqXBMBPDvPKNIocuM3-37" value="Win" style="text;strokeColor=none;fillColor=none;align=left;verticalAlign=middle;spacingLeft=4;spacingRight=4;overflow=hidden;points=[[0,0.5],[1,0.5]];portConstraint=eastwest;rotatable=0;whiteSpace=wrap;html=1;" vertex="1" parent="WCTqXBMBPDvPKNIocuM3-35">
          <mxGeometry y="60" width="140" height="30" as="geometry" />
        </mxCell>
        <mxCell id="WCTqXBMBPDvPKNIocuM3-38" value="Draw" style="text;strokeColor=none;fillColor=none;align=left;verticalAlign=middle;spacingLeft=4;spacingRight=4;overflow=hidden;points=[[0,0.5],[1,0.5]];portConstraint=eastwest;rotatable=0;whiteSpace=wrap;html=1;" vertex="1" parent="WCTqXBMBPDvPKNIocuM3-35">
          <mxGeometry y="90" width="140" height="30" as="geometry" />
        </mxCell>
        <mxCell id="WCTqXBMBPDvPKNIocuM3-39" value="Lose" style="text;strokeColor=none;fillColor=none;align=left;verticalAlign=middle;spacingLeft=4;spacingRight=4;overflow=hidden;points=[[0,0.5],[1,0.5]];portConstraint=eastwest;rotatable=0;whiteSpace=wrap;html=1;" vertex="1" parent="WCTqXBMBPDvPKNIocuM3-35">
          <mxGeometry y="120" width="140" height="30" as="geometry" />
        </mxCell>
        <mxCell id="WCTqXBMBPDvPKNIocuM3-42" value="Goals" style="text;strokeColor=none;fillColor=none;align=left;verticalAlign=middle;spacingLeft=4;spacingRight=4;overflow=hidden;points=[[0,0.5],[1,0.5]];portConstraint=eastwest;rotatable=0;whiteSpace=wrap;html=1;" vertex="1" parent="WCTqXBMBPDvPKNIocuM3-35">
          <mxGeometry y="150" width="140" height="30" as="geometry" />
        </mxCell>
        <mxCell id="WCTqXBMBPDvPKNIocuM3-41" value="GoalsScored" style="text;strokeColor=none;fillColor=none;align=left;verticalAlign=middle;spacingLeft=4;spacingRight=4;overflow=hidden;points=[[0,0.5],[1,0.5]];portConstraint=eastwest;rotatable=0;whiteSpace=wrap;html=1;" vertex="1" parent="WCTqXBMBPDvPKNIocuM3-35">
          <mxGeometry y="180" width="140" height="30" as="geometry" />
        </mxCell>
        <mxCell id="WCTqXBMBPDvPKNIocuM3-43" value="Scores" style="text;strokeColor=none;fillColor=none;align=left;verticalAlign=middle;spacingLeft=4;spacingRight=4;overflow=hidden;points=[[0,0.5],[1,0.5]];portConstraint=eastwest;rotatable=0;whiteSpace=wrap;html=1;" vertex="1" parent="WCTqXBMBPDvPKNIocuM3-35">
          <mxGeometry y="210" width="140" height="30" as="geometry" />
        </mxCell>
        <mxCell id="WCTqXBMBPDvPKNIocuM3-44" value="ArrayList&amp;lt;Game&amp;gt;" style="ellipse;whiteSpace=wrap;html=1;" vertex="1" parent="1">
          <mxGeometry y="500" width="120" height="80" as="geometry" />
        </mxCell>
        <mxCell id="WCTqXBMBPDvPKNIocuM3-45" value="" style="endArrow=classic;startArrow=classic;html=1;rounded=0;exitX=0.5;exitY=0;exitDx=0;exitDy=0;" edge="1" parent="1" source="WCTqXBMBPDvPKNIocuM3-44">
          <mxGeometry width="50" height="50" relative="1" as="geometry">
            <mxPoint x="30" y="480" as="sourcePoint" />
            <mxPoint x="80" y="430" as="targetPoint" />
          </mxGeometry>
        </mxCell>
        <mxCell id="WCTqXBMBPDvPKNIocuM3-46" value="" style="endArrow=classic;startArrow=classic;html=1;rounded=0;entryX=0.009;entryY=1.07;entryDx=0;entryDy=0;entryPerimeter=0;" edge="1" parent="1" source="WCTqXBMBPDvPKNIocuM3-44" target="WCTqXBMBPDvPKNIocuM3-38">
          <mxGeometry width="50" height="50" relative="1" as="geometry">
            <mxPoint x="140" y="540" as="sourcePoint" />
            <mxPoint x="190" y="490" as="targetPoint" />
          </mxGeometry>
        </mxCell>
        <mxCell id="WCTqXBMBPDvPKNIocuM3-47" value="checkTeam()&lt;br&gt;SortList()" style="whiteSpace=wrap;html=1;rotation=90;" vertex="1" parent="1">
          <mxGeometry x="120" y="510" width="120" height="60" as="geometry" />
        </mxCell>
        <mxCell id="WCTqXBMBPDvPKNIocuM3-48" value="ArrayList&amp;lt;Team&amp;gt;" style="ellipse;whiteSpace=wrap;html=1;" vertex="1" parent="1">
          <mxGeometry x="240" y="290" width="120" height="80" as="geometry" />
        </mxCell>
        <mxCell id="WCTqXBMBPDvPKNIocuM3-49" value="" style="endArrow=classic;startArrow=classic;html=1;rounded=0;entryX=0.5;entryY=1;entryDx=0;entryDy=0;exitX=0.499;exitY=-0.008;exitDx=0;exitDy=0;exitPerimeter=0;" edge="1" parent="1" source="WCTqXBMBPDvPKNIocuM3-35" target="WCTqXBMBPDvPKNIocuM3-48">
          <mxGeometry width="50" height="50" relative="1" as="geometry">
            <mxPoint x="300" y="420" as="sourcePoint" />
            <mxPoint x="295" y="370" as="targetPoint" />
          </mxGeometry>
        </mxCell>
        <mxCell id="WCTqXBMBPDvPKNIocuM3-51" value="Add()" style="text;html=1;align=center;verticalAlign=middle;resizable=0;points=[];autosize=1;strokeColor=none;fillColor=none;" vertex="1" parent="1">
          <mxGeometry x="280" y="378" width="50" height="30" as="geometry" />
        </mxCell>
        <mxCell id="WCTqXBMBPDvPKNIocuM3-52" value="" style="endArrow=classic;html=1;rounded=0;exitX=0.5;exitY=0;exitDx=0;exitDy=0;" edge="1" parent="1" source="WCTqXBMBPDvPKNIocuM3-48">
          <mxGeometry width="50" height="50" relative="1" as="geometry">
            <mxPoint x="220" y="230" as="sourcePoint" />
            <mxPoint x="270" y="180" as="targetPoint" />
          </mxGeometry>
        </mxCell>
        <mxCell id="WCTqXBMBPDvPKNIocuM3-53" value="for(Team team: teams)&lt;br&gt;// limit: 12" style="whiteSpace=wrap;html=1;" vertex="1" parent="1">
          <mxGeometry x="220" y="210" width="130" height="60" as="geometry" />
        </mxCell>
        <mxCell id="WCTqXBMBPDvPKNIocuM3-54" value="Map&amp;lt;String, Pair&amp;gt; playerStat" style="swimlane;fontStyle=0;childLayout=stackLayout;horizontal=1;startSize=30;horizontalStack=0;resizeParent=1;resizeParentMax=0;resizeLast=0;collapsible=1;marginBottom=0;whiteSpace=wrap;html=1;" vertex="1" parent="1">
          <mxGeometry x="540" y="378" width="140" height="90" as="geometry" />
        </mxCell>
        <mxCell id="WCTqXBMBPDvPKNIocuM3-55" value="Key : PlayerName" style="text;strokeColor=none;fillColor=none;align=left;verticalAlign=middle;spacingLeft=4;spacingRight=4;overflow=hidden;points=[[0,0.5],[1,0.5]];portConstraint=eastwest;rotatable=0;whiteSpace=wrap;html=1;" vertex="1" parent="WCTqXBMBPDvPKNIocuM3-54">
          <mxGeometry y="30" width="140" height="30" as="geometry" />
        </mxCell>
        <mxCell id="WCTqXBMBPDvPKNIocuM3-56" value="Value: Pair (goals, team)" style="text;strokeColor=none;fillColor=none;align=left;verticalAlign=middle;spacingLeft=4;spacingRight=4;overflow=hidden;points=[[0,0.5],[1,0.5]];portConstraint=eastwest;rotatable=0;whiteSpace=wrap;html=1;" vertex="1" parent="WCTqXBMBPDvPKNIocuM3-54">
          <mxGeometry y="60" width="140" height="30" as="geometry" />
        </mxCell>
        <mxCell id="WCTqXBMBPDvPKNIocuM3-58" value="" style="shape=flexArrow;endArrow=classic;html=1;rounded=0;width=5.833333333333334;endSize=7.933333333333334;entryX=0;entryY=0.5;entryDx=0;entryDy=0;" edge="1" parent="1" target="WCTqXBMBPDvPKNIocuM3-55">
          <mxGeometry width="50" height="50" relative="1" as="geometry">
            <mxPoint x="150" y="418" as="sourcePoint" />
            <mxPoint x="200" y="368" as="targetPoint" />
          </mxGeometry>
        </mxCell>
        <mxCell id="WCTqXBMBPDvPKNIocuM3-59" value="player(games)" style="whiteSpace=wrap;html=1;rotation=90;" vertex="1" parent="1">
          <mxGeometry x="360" y="403" width="80" height="40" as="geometry" />
        </mxCell>
        <mxCell id="WCTqXBMBPDvPKNIocuM3-61" value="" style="endArrow=classic;html=1;rounded=0;entryX=0.543;entryY=0.992;entryDx=0;entryDy=0;entryPerimeter=0;exitX=0.5;exitY=0;exitDx=0;exitDy=0;" edge="1" parent="1" source="WCTqXBMBPDvPKNIocuM3-54" target="WCTqXBMBPDvPKNIocuM3-5">
          <mxGeometry width="50" height="50" relative="1" as="geometry">
            <mxPoint x="520" y="378" as="sourcePoint" />
            <mxPoint x="570" y="328" as="targetPoint" />
          </mxGeometry>
        </mxCell>
        <mxCell id="WCTqXBMBPDvPKNIocuM3-62" value="stream().sort().foreach(print())" style="rhombus;whiteSpace=wrap;html=1;" vertex="1" parent="1">
          <mxGeometry x="360" y="230" width="230" height="60" as="geometry" />
        </mxCell>
        <mxCell id="WCTqXBMBPDvPKNIocuM3-63" value="" style="endArrow=classic;html=1;rounded=0;entryX=0.5;entryY=1;entryDx=0;entryDy=0;" edge="1" parent="1" source="WCTqXBMBPDvPKNIocuM3-64" target="WCTqXBMBPDvPKNIocuM3-33">
          <mxGeometry width="50" height="50" relative="1" as="geometry">
            <mxPoint x="610" y="378" as="sourcePoint" />
            <mxPoint x="660" y="328" as="targetPoint" />
          </mxGeometry>
        </mxCell>
        <mxCell id="WCTqXBMBPDvPKNIocuM3-65" value="" style="endArrow=classic;html=1;rounded=0;entryX=0.5;entryY=1;entryDx=0;entryDy=0;" edge="1" parent="1" target="WCTqXBMBPDvPKNIocuM3-64">
          <mxGeometry width="50" height="50" relative="1" as="geometry">
            <mxPoint x="610" y="378" as="sourcePoint" />
            <mxPoint x="610" y="180" as="targetPoint" />
          </mxGeometry>
        </mxCell>
        <mxCell id="WCTqXBMBPDvPKNIocuM3-64" value="return 1 entry in playerStat" style="ellipse;whiteSpace=wrap;html=1;" vertex="1" parent="1">
          <mxGeometry x="570" y="260" width="80" height="80" as="geometry" />
        </mxCell>
        <mxCell id="WCTqXBMBPDvPKNIocuM3-66" value="Pair" style="swimlane;fontStyle=0;childLayout=stackLayout;horizontal=1;startSize=30;horizontalStack=0;resizeParent=1;resizeParentMax=0;resizeLast=0;collapsible=1;marginBottom=0;whiteSpace=wrap;html=1;" vertex="1" parent="1">
          <mxGeometry x="565" y="530" width="90" height="90" as="geometry" />
        </mxCell>
        <mxCell id="WCTqXBMBPDvPKNIocuM3-67" value="int goals" style="text;strokeColor=none;fillColor=none;align=left;verticalAlign=middle;spacingLeft=4;spacingRight=4;overflow=hidden;points=[[0,0.5],[1,0.5]];portConstraint=eastwest;rotatable=0;whiteSpace=wrap;html=1;" vertex="1" parent="WCTqXBMBPDvPKNIocuM3-66">
          <mxGeometry y="30" width="90" height="30" as="geometry" />
        </mxCell>
        <mxCell id="WCTqXBMBPDvPKNIocuM3-68" value="String teamName" style="text;strokeColor=none;fillColor=none;align=left;verticalAlign=middle;spacingLeft=4;spacingRight=4;overflow=hidden;points=[[0,0.5],[1,0.5]];portConstraint=eastwest;rotatable=0;whiteSpace=wrap;html=1;" vertex="1" parent="WCTqXBMBPDvPKNIocuM3-66">
          <mxGeometry y="60" width="90" height="30" as="geometry" />
        </mxCell>
        <mxCell id="WCTqXBMBPDvPKNIocuM3-70" value="" style="shape=flexArrow;endArrow=classic;html=1;rounded=0;exitX=0.5;exitY=0;exitDx=0;exitDy=0;entryX=0.509;entryY=1.013;entryDx=0;entryDy=0;entryPerimeter=0;" edge="1" parent="1" source="WCTqXBMBPDvPKNIocuM3-66" target="WCTqXBMBPDvPKNIocuM3-56">
          <mxGeometry width="50" height="50" relative="1" as="geometry">
            <mxPoint x="550" y="518" as="sourcePoint" />
            <mxPoint x="600" y="468" as="targetPoint" />
          </mxGeometry>
        </mxCell>
      </root>
    </mxGraphModel>
  </diagram>
</mxfile>
